<?xml version="1.0" encoding="UTF-8"?>
<svg id="Calque_1" xmlns="http://www.w3.org/2000/svg" version="1.1" viewBox="0 0 1920 1080">
  <!-- Generator: Adobe Illustrator 30.0.0, SVG Export Plug-In . SVG Version: 2.1.1 Build 123)  -->
  <defs>
    <style>
      .st0 {
        fill: #fff;
      }
    </style>
  </defs>
  <polygon class="st0" points="1519.44 544.4 1572.82 544.4 1592.47 490.83 1519.44 490.83 1519.44 458.97 1611.93 458.97 1636.1 392.91 1452.67 393.15 1452.67 642.09 1628.85 642.09 1628.85 576.03 1519.44 576.03 1519.44 544.4"/>
  <polygon class="st0" points="1346.48 569.03 1346.48 393.16 1252.35 393.16 1267.61 421.69 1267.61 642.09 1443.29 642.09 1416.13 569.03 1346.48 569.03"/>
  <path class="st0" d="M1184.15,393.13l-131.59.26,10.15,19.12-84.79,229.58h80.14l11.66-32.75h94.84l12.99,32.75h80.22l-84.12-229.55,10.51-19.41h-.01ZM1092.47,543.28l25.42-73.76,25.74,73.76h-51.17.01Z"/>
  <polygon class="st0" points="1021.03 393.13 750.4 393.13 702.61 496.43 654.83 393.13 654.71 393.51 654.55 393.13 575.03 393.13 662.23 583.75 635.01 642.57 717.62 642.57 810.67 441.29 820.34 465.19 865.85 465.21 865.85 642.71 947.76 642.71 947.76 465.19 993.41 465.19 1021.03 393.13"/>
  <polygon class="st0" points="480.39 301.94 480.39 458.88 413.73 458.72 412.41 301.68 284.9 320.27 325.54 395.61 325.58 645.22 413.37 709.06 413.42 534.23 479.19 534.5 479.19 779.32 566.54 715.76 566.54 395.69 607.29 320.47 480.39 301.94"/>
</svg>